STARTFONT 2.1
COMMENT
COMMENT Converted from OpenType font "Oxanium-Light.ttf" by "otf2bdf 3.0".
COMMENT
FONT -FreeType-Oxanium Light-Medium-R-Normal--15-150-72-72-P-66-ISO10646-1
SIZE 15 72 72
FONTBOUNDINGBOX 24 18 -7 -3
STARTPROPERTIES 19
FOUNDRY "FreeType"
FAMILY_NAME "Oxanium Light"
WEIGHT_NAME "Medium"
SLANT "R"
SETWIDTH_NAME "Normal"
ADD_STYLE_NAME ""
PIXEL_SIZE 15
POINT_SIZE 150
RESOLUTION_X 72
RESOLUTION_Y 72
SPACING "P"
AVERAGE_WIDTH 66
CHARSET_REGISTRY "ISO10646"
CHARSET_ENCODING "1"
FONT_ASCENT 11
FONT_DESCENT 3
COPYRIGHT "Copyright 2019 The Oxanium Project Authors (https://github.com/sevmeyer/oxanium)"
_OTF_FONTFILE "Oxanium-Light.ttf"
_OTF_PSNAME "Oxanium-Light"
ENDPROPERTIES
CHARS 357
STARTCHAR 0000
ENCODING 0
SWIDTH 0 0
DWIDTH 0 0
BBX 0 0 0 0
BITMAP
ENDCHAR
STARTCHAR 000D
ENCODING 13
SWIDTH 266 0
DWIDTH 4 0
BBX 0 0 0 0
BITMAP
ENDCHAR
STARTCHAR 0020
ENCODING 32
SWIDTH 266 0
DWIDTH 4 0
BBX 0 0 0 0
BITMAP
ENDCHAR
STARTCHAR 0021
ENCODING 33
SWIDTH 266 0
DWIDTH 4 0
BBX 2 11 1 0
BITMAP
80
80
80
80
80
80
80
80
00
C0
C0
ENDCHAR
STARTCHAR 0022
ENCODING 34
SWIDTH 400 0
DWIDTH 6 0
BBX 3 4 1 7
BITMAP
A0
A0
A0
A0
ENDCHAR
STARTCHAR 0023
ENCODING 35
SWIDTH 666 0
DWIDTH 10 0
BBX 8 11 1 0
BITMAP
24
24
24
FF
24
24
24
FF
24
24
24
ENDCHAR
STARTCHAR 0024
ENCODING 36
SWIDTH 600 0
DWIDTH 9 0
BBX 7 14 1 -2
BITMAP
10
10
7C
80
80
80
70
0C
02
02
06
FC
10
10
ENDCHAR
STARTCHAR 0025
ENCODING 37
SWIDTH 866 0
DWIDTH 13 0
BBX 11 11 1 0
BITMAP
E100
9100
9200
9200
95E0
9520
E920
0920
1120
1120
11E0
ENDCHAR
STARTCHAR 0026
ENCODING 38
SWIDTH 666 0
DWIDTH 10 0
BBX 8 11 1 0
BITMAP
7C
80
80
80
40
7F
82
82
82
82
7E
ENDCHAR
STARTCHAR 0027
ENCODING 39
SWIDTH 200 0
DWIDTH 3 0
BBX 1 4 1 7
BITMAP
80
80
80
80
ENDCHAR
STARTCHAR 0028
ENCODING 40
SWIDTH 333 0
DWIDTH 5 0
BBX 3 15 1 -3
BITMAP
20
20
40
40
80
80
80
80
80
80
80
40
40
20
20
ENDCHAR
STARTCHAR 0029
ENCODING 41
SWIDTH 333 0
DWIDTH 5 0
BBX 3 15 0 -3
BITMAP
80
40
40
20
20
20
20
20
20
20
20
20
40
40
80
ENDCHAR
STARTCHAR 002A
ENCODING 42
SWIDTH 466 0
DWIDTH 7 0
BBX 6 6 1 5
BITMAP
20
20
FC
20
50
48
ENDCHAR
STARTCHAR 002B
ENCODING 43
SWIDTH 600 0
DWIDTH 9 0
BBX 7 7 1 2
BITMAP
10
10
10
FE
10
10
10
ENDCHAR
STARTCHAR 002C
ENCODING 44
SWIDTH 266 0
DWIDTH 4 0
BBX 1 4 1 -2
BITMAP
80
80
80
80
ENDCHAR
STARTCHAR 002D
ENCODING 45
SWIDTH 333 0
DWIDTH 5 0
BBX 4 1 1 4
BITMAP
F0
ENDCHAR
STARTCHAR 002E
ENCODING 46
SWIDTH 266 0
DWIDTH 4 0
BBX 2 2 1 0
BITMAP
C0
C0
ENDCHAR
STARTCHAR 002F
ENCODING 47
SWIDTH 400 0
DWIDTH 6 0
BBX 5 12 0 -1
BITMAP
08
08
08
10
10
10
20
20
40
40
40
80
ENDCHAR
STARTCHAR 0030
ENCODING 48
SWIDTH 600 0
DWIDTH 9 0
BBX 7 11 1 0
BITMAP
7C
82
82
82
82
82
82
82
82
82
7C
ENDCHAR
STARTCHAR 0031
ENCODING 49
SWIDTH 600 0
DWIDTH 9 0
BBX 6 11 1 0
BITMAP
70
10
10
10
10
10
10
10
10
10
FC
ENDCHAR
STARTCHAR 0032
ENCODING 50
SWIDTH 600 0
DWIDTH 9 0
BBX 7 11 1 0
BITMAP
FC
02
02
02
04
7C
80
80
80
80
FE
ENDCHAR
STARTCHAR 0033
ENCODING 51
SWIDTH 600 0
DWIDTH 9 0
BBX 7 11 1 0
BITMAP
FC
02
02
02
06
7C
02
02
02
02
FC
ENDCHAR
STARTCHAR 0034
ENCODING 52
SWIDTH 600 0
DWIDTH 9 0
BBX 7 11 1 0
BITMAP
18
10
30
20
22
42
42
82
FE
02
02
ENDCHAR
STARTCHAR 0035
ENCODING 53
SWIDTH 600 0
DWIDTH 9 0
BBX 7 11 1 0
BITMAP
FC
80
80
80
80
FC
02
02
02
02
FC
ENDCHAR
STARTCHAR 0036
ENCODING 54
SWIDTH 600 0
DWIDTH 9 0
BBX 7 11 1 0
BITMAP
7C
80
80
80
80
FC
82
82
82
82
7C
ENDCHAR
STARTCHAR 0037
ENCODING 55
SWIDTH 600 0
DWIDTH 9 0
BBX 7 11 1 0
BITMAP
FE
02
02
04
04
08
08
10
10
20
60
ENDCHAR
STARTCHAR 0038
ENCODING 56
SWIDTH 600 0
DWIDTH 9 0
BBX 7 11 1 0
BITMAP
7C
82
82
82
86
7C
82
82
82
82
7C
ENDCHAR
STARTCHAR 0039
ENCODING 57
SWIDTH 600 0
DWIDTH 9 0
BBX 7 11 1 0
BITMAP
7C
82
82
82
82
7E
02
02
02
04
FC
ENDCHAR
STARTCHAR 003A
ENCODING 58
SWIDTH 266 0
DWIDTH 4 0
BBX 2 8 1 0
BITMAP
C0
C0
00
00
00
00
C0
C0
ENDCHAR
STARTCHAR 003B
ENCODING 59
SWIDTH 266 0
DWIDTH 4 0
BBX 2 10 1 -2
BITMAP
C0
C0
00
00
00
00
80
80
80
80
ENDCHAR
STARTCHAR 003C
ENCODING 60
SWIDTH 600 0
DWIDTH 9 0
BBX 7 7 1 2
BITMAP
06
18
60
80
60
18
06
ENDCHAR
STARTCHAR 003D
ENCODING 61
SWIDTH 600 0
DWIDTH 9 0
BBX 7 4 1 3
BITMAP
FE
00
00
FE
ENDCHAR
STARTCHAR 003E
ENCODING 62
SWIDTH 600 0
DWIDTH 9 0
BBX 7 7 1 2
BITMAP
80
70
0C
02
0C
30
C0
ENDCHAR
STARTCHAR 003F
ENCODING 63
SWIDTH 466 0
DWIDTH 7 0
BBX 6 11 1 0
BITMAP
F8
04
04
04
04
38
20
20
00
20
20
ENDCHAR
STARTCHAR 0040
ENCODING 64
SWIDTH 800 0
DWIDTH 12 0
BBX 10 12 1 -1
BITMAP
7FC0
8040
8040
8FC0
8840
8840
8840
8840
8FC0
8000
8000
7F80
ENDCHAR
STARTCHAR 0041
ENCODING 65
SWIDTH 600 0
DWIDTH 9 0
BBX 9 11 0 0
BITMAP
0C00
1400
1400
1200
2200
2200
2100
7F00
4100
4080
8080
ENDCHAR
STARTCHAR 0042
ENCODING 66
SWIDTH 666 0
DWIDTH 10 0
BBX 8 11 1 0
BITMAP
FE
82
82
82
82
FE
81
81
81
81
FE
ENDCHAR
STARTCHAR 0043
ENCODING 67
SWIDTH 600 0
DWIDTH 9 0
BBX 7 11 1 0
BITMAP
7E
80
80
80
80
80
80
80
80
80
7E
ENDCHAR
STARTCHAR 0044
ENCODING 68
SWIDTH 666 0
DWIDTH 10 0
BBX 8 11 1 0
BITMAP
FE
83
81
81
81
81
81
81
81
83
FE
ENDCHAR
STARTCHAR 0045
ENCODING 69
SWIDTH 600 0
DWIDTH 9 0
BBX 7 11 1 0
BITMAP
FE
80
80
80
80
FE
80
80
80
80
FE
ENDCHAR
STARTCHAR 0046
ENCODING 70
SWIDTH 533 0
DWIDTH 8 0
BBX 7 11 1 0
BITMAP
FE
80
80
80
80
FE
80
80
80
80
80
ENDCHAR
STARTCHAR 0047
ENCODING 71
SWIDTH 666 0
DWIDTH 10 0
BBX 8 11 1 0
BITMAP
7F
80
80
80
80
8F
81
81
81
81
7F
ENDCHAR
STARTCHAR 0048
ENCODING 72
SWIDTH 666 0
DWIDTH 10 0
BBX 8 11 1 0
BITMAP
81
81
81
81
81
FF
81
81
81
81
81
ENDCHAR
STARTCHAR 0049
ENCODING 73
SWIDTH 266 0
DWIDTH 4 0
BBX 1 11 1 0
BITMAP
80
80
80
80
80
80
80
80
80
80
80
ENDCHAR
STARTCHAR 004A
ENCODING 74
SWIDTH 600 0
DWIDTH 9 0
BBX 7 11 1 0
BITMAP
3E
02
02
02
02
02
02
82
82
82
7C
ENDCHAR
STARTCHAR 004B
ENCODING 75
SWIDTH 600 0
DWIDTH 9 0
BBX 8 11 1 0
BITMAP
82
84
8C
88
90
B0
C8
84
84
82
83
ENDCHAR
STARTCHAR 004C
ENCODING 76
SWIDTH 533 0
DWIDTH 8 0
BBX 7 11 1 0
BITMAP
80
80
80
80
80
80
80
80
80
80
FE
ENDCHAR
STARTCHAR 004D
ENCODING 77
SWIDTH 866 0
DWIDTH 13 0
BBX 10 11 1 0
BITMAP
C040
C0C0
A0C0
A140
9140
9140
8A40
8A40
8440
8040
8040
ENDCHAR
STARTCHAR 004E
ENCODING 78
SWIDTH 733 0
DWIDTH 11 0
BBX 8 11 1 0
BITMAP
C1
C1
A1
91
91
89
8D
85
83
83
81
ENDCHAR
STARTCHAR 004F
ENCODING 79
SWIDTH 666 0
DWIDTH 10 0
BBX 8 11 1 0
BITMAP
7F
81
81
81
81
81
81
81
81
81
7F
ENDCHAR
STARTCHAR 0050
ENCODING 80
SWIDTH 600 0
DWIDTH 9 0
BBX 7 11 1 0
BITMAP
FE
82
82
82
82
82
FE
80
80
80
80
ENDCHAR
STARTCHAR 0051
ENCODING 81
SWIDTH 666 0
DWIDTH 10 0
BBX 8 14 1 -3
BITMAP
7F
81
81
81
81
81
81
81
81
81
7F
04
02
02
ENDCHAR
STARTCHAR 0052
ENCODING 82
SWIDTH 666 0
DWIDTH 10 0
BBX 8 11 1 0
BITMAP
FE
82
82
82
82
FE
84
84
82
82
81
ENDCHAR
STARTCHAR 0053
ENCODING 83
SWIDTH 600 0
DWIDTH 9 0
BBX 7 11 1 0
BITMAP
7C
80
80
80
C0
3C
06
02
02
02
FC
ENDCHAR
STARTCHAR 0054
ENCODING 84
SWIDTH 600 0
DWIDTH 9 0
BBX 8 11 0 0
BITMAP
FF
08
08
08
08
08
08
08
08
08
08
ENDCHAR
STARTCHAR 0055
ENCODING 85
SWIDTH 666 0
DWIDTH 10 0
BBX 8 11 1 0
BITMAP
81
81
81
81
81
81
81
81
81
81
7E
ENDCHAR
STARTCHAR 0056
ENCODING 86
SWIDTH 600 0
DWIDTH 9 0
BBX 9 11 0 0
BITMAP
8080
4100
4100
4100
2300
2200
2200
1200
1400
1400
0C00
ENDCHAR
STARTCHAR 0057
ENCODING 87
SWIDTH 933 0
DWIDTH 14 0
BBX 13 11 0 0
BITMAP
C008
4208
4308
4310
4510
2510
2490
2490
28A0
1860
1860
ENDCHAR
STARTCHAR 0058
ENCODING 88
SWIDTH 600 0
DWIDTH 9 0
BBX 9 11 0 0
BITMAP
4100
6300
2200
1400
1400
0800
1400
1400
2200
4100
C180
ENDCHAR
STARTCHAR 0059
ENCODING 89
SWIDTH 600 0
DWIDTH 9 0
BBX 8 11 0 0
BITMAP
C1
43
62
26
14
18
08
08
08
08
08
ENDCHAR
STARTCHAR 005A
ENCODING 90
SWIDTH 600 0
DWIDTH 9 0
BBX 7 11 1 0
BITMAP
FE
06
04
08
18
10
20
20
40
80
FE
ENDCHAR
STARTCHAR 005B
ENCODING 91
SWIDTH 333 0
DWIDTH 5 0
BBX 3 15 1 -3
BITMAP
E0
80
80
80
80
80
80
80
80
80
80
80
80
80
E0
ENDCHAR
STARTCHAR 005C
ENCODING 92
SWIDTH 400 0
DWIDTH 6 0
BBX 5 12 0 -1
BITMAP
80
40
40
40
20
20
10
10
10
08
08
08
ENDCHAR
STARTCHAR 005D
ENCODING 93
SWIDTH 333 0
DWIDTH 5 0
BBX 4 15 0 -3
BITMAP
F0
10
10
10
10
10
10
10
10
10
10
10
10
10
F0
ENDCHAR
STARTCHAR 005E
ENCODING 94
SWIDTH 533 0
DWIDTH 8 0
BBX 6 6 1 5
BITMAP
30
30
48
48
84
84
ENDCHAR
STARTCHAR 005F
ENCODING 95
SWIDTH 600 0
DWIDTH 9 0
BBX 7 1 1 -3
BITMAP
FE
ENDCHAR
STARTCHAR 0060
ENCODING 96
SWIDTH 533 0
DWIDTH 8 0
BBX 3 3 2 9
BITMAP
80
40
20
ENDCHAR
STARTCHAR 0061
ENCODING 97
SWIDTH 533 0
DWIDTH 8 0
BBX 6 8 1 0
BITMAP
78
04
04
7C
84
84
84
FC
ENDCHAR
STARTCHAR 0062
ENCODING 98
SWIDTH 600 0
DWIDTH 9 0
BBX 7 11 1 0
BITMAP
80
80
80
FC
82
82
82
82
82
82
FC
ENDCHAR
STARTCHAR 0063
ENCODING 99
SWIDTH 533 0
DWIDTH 8 0
BBX 6 8 1 0
BITMAP
7C
80
80
80
80
80
80
7C
ENDCHAR
STARTCHAR 0064
ENCODING 100
SWIDTH 600 0
DWIDTH 9 0
BBX 6 11 1 0
BITMAP
04
04
04
7C
84
84
84
84
84
84
7C
ENDCHAR
STARTCHAR 0065
ENCODING 101
SWIDTH 600 0
DWIDTH 9 0
BBX 6 8 1 0
BITMAP
7C
84
84
FC
80
80
80
7C
ENDCHAR
STARTCHAR 0066
ENCODING 102
SWIDTH 400 0
DWIDTH 6 0
BBX 4 11 1 0
BITMAP
70
80
80
F0
80
80
80
80
80
80
80
ENDCHAR
STARTCHAR 0067
ENCODING 103
SWIDTH 600 0
DWIDTH 9 0
BBX 6 11 1 -3
BITMAP
7C
84
84
84
84
84
84
7C
04
04
7C
ENDCHAR
STARTCHAR 0068
ENCODING 104
SWIDTH 600 0
DWIDTH 9 0
BBX 7 11 1 0
BITMAP
80
80
80
FC
82
82
82
82
82
82
82
ENDCHAR
STARTCHAR 0069
ENCODING 105
SWIDTH 200 0
DWIDTH 3 0
BBX 1 10 1 0
BITMAP
80
00
80
80
80
80
80
80
80
80
ENDCHAR
STARTCHAR 006A
ENCODING 106
SWIDTH 200 0
DWIDTH 3 0
BBX 2 13 0 -3
BITMAP
40
00
40
40
40
40
40
40
40
40
40
40
C0
ENDCHAR
STARTCHAR 006B
ENCODING 107
SWIDTH 533 0
DWIDTH 8 0
BBX 6 11 1 0
BITMAP
80
80
80
84
88
90
A0
D0
88
88
84
ENDCHAR
STARTCHAR 006C
ENCODING 108
SWIDTH 266 0
DWIDTH 4 0
BBX 2 11 1 0
BITMAP
80
80
80
80
80
80
80
80
80
80
40
ENDCHAR
STARTCHAR 006D
ENCODING 109
SWIDTH 866 0
DWIDTH 13 0
BBX 11 8 1 0
BITMAP
FFE0
8420
8420
8420
8420
8420
8420
8420
ENDCHAR
STARTCHAR 006E
ENCODING 110
SWIDTH 600 0
DWIDTH 9 0
BBX 7 8 1 0
BITMAP
FC
82
82
82
82
82
82
82
ENDCHAR
STARTCHAR 006F
ENCODING 111
SWIDTH 600 0
DWIDTH 9 0
BBX 7 8 1 0
BITMAP
7C
82
82
82
82
82
82
7C
ENDCHAR
STARTCHAR 0070
ENCODING 112
SWIDTH 600 0
DWIDTH 9 0
BBX 7 11 1 -3
BITMAP
FC
82
82
82
82
82
82
FC
80
80
80
ENDCHAR
STARTCHAR 0071
ENCODING 113
SWIDTH 600 0
DWIDTH 9 0
BBX 6 11 1 -3
BITMAP
7C
84
84
84
84
84
84
7C
04
04
04
ENDCHAR
STARTCHAR 0072
ENCODING 114
SWIDTH 333 0
DWIDTH 5 0
BBX 4 8 1 0
BITMAP
F0
80
80
80
80
80
80
80
ENDCHAR
STARTCHAR 0073
ENCODING 115
SWIDTH 466 0
DWIDTH 7 0
BBX 6 8 1 0
BITMAP
78
80
80
E0
18
04
08
F8
ENDCHAR
STARTCHAR 0074
ENCODING 116
SWIDTH 400 0
DWIDTH 6 0
BBX 4 11 1 0
BITMAP
80
80
80
F0
80
80
80
80
80
80
70
ENDCHAR
STARTCHAR 0075
ENCODING 117
SWIDTH 600 0
DWIDTH 9 0
BBX 7 8 1 0
BITMAP
82
82
82
82
82
82
82
7E
ENDCHAR
STARTCHAR 0076
ENCODING 118
SWIDTH 533 0
DWIDTH 8 0
BBX 7 8 0 0
BITMAP
82
42
42
44
24
24
28
18
ENDCHAR
STARTCHAR 0077
ENCODING 119
SWIDTH 800 0
DWIDTH 12 0
BBX 11 8 0 0
BITMAP
8420
4620
4A20
4A40
4940
2940
3140
3080
ENDCHAR
STARTCHAR 0078
ENCODING 120
SWIDTH 533 0
DWIDTH 8 0
BBX 7 8 0 0
BITMAP
42
24
28
18
18
2C
44
C2
ENDCHAR
STARTCHAR 0079
ENCODING 121
SWIDTH 533 0
DWIDTH 8 0
BBX 7 11 0 -3
BITMAP
82
42
42
44
24
24
28
18
10
10
10
ENDCHAR
STARTCHAR 007A
ENCODING 122
SWIDTH 533 0
DWIDTH 8 0
BBX 6 8 1 0
BITMAP
FC
08
10
10
20
40
80
FC
ENDCHAR
STARTCHAR 007B
ENCODING 123
SWIDTH 400 0
DWIDTH 6 0
BBX 4 15 1 -3
BITMAP
30
40
40
40
40
40
C0
80
C0
40
40
40
40
40
30
ENDCHAR
STARTCHAR 007C
ENCODING 124
SWIDTH 266 0
DWIDTH 4 0
BBX 1 14 1 -3
BITMAP
80
80
80
80
80
80
80
80
80
80
80
80
80
80
ENDCHAR
STARTCHAR 007D
ENCODING 125
SWIDTH 400 0
DWIDTH 6 0
BBX 5 15 0 -3
BITMAP
E0
20
20
20
20
20
10
08
10
20
20
20
20
20
E0
ENDCHAR
STARTCHAR 007E
ENCODING 126
SWIDTH 600 0
DWIDTH 9 0
BBX 7 3 1 4
BITMAP
62
94
8C
ENDCHAR
STARTCHAR 00A0
ENCODING 160
SWIDTH 266 0
DWIDTH 4 0
BBX 0 0 0 0
BITMAP
ENDCHAR
STARTCHAR 00A1
ENCODING 161
SWIDTH 266 0
DWIDTH 4 0
BBX 2 11 1 -3
BITMAP
C0
C0
00
80
80
80
80
80
80
80
80
ENDCHAR
STARTCHAR 00A2
ENCODING 162
SWIDTH 600 0
DWIDTH 9 0
BBX 6 12 1 -2
BITMAP
10
10
7C
40
80
80
80
80
40
7C
10
10
ENDCHAR
STARTCHAR 00A3
ENCODING 163
SWIDTH 600 0
DWIDTH 9 0
BBX 7 11 1 0
BITMAP
3E
40
40
40
40
F8
40
40
40
40
FE
ENDCHAR
STARTCHAR 00A4
ENCODING 164
SWIDTH 600 0
DWIDTH 9 0
BBX 7 7 1 2
BITMAP
82
7C
44
44
44
7C
82
ENDCHAR
STARTCHAR 00A5
ENCODING 165
SWIDTH 600 0
DWIDTH 9 0
BBX 7 11 1 0
BITMAP
82
86
44
48
28
30
FC
10
FC
10
10
ENDCHAR
STARTCHAR 00A6
ENCODING 166
SWIDTH 266 0
DWIDTH 4 0
BBX 1 14 1 -3
BITMAP
80
80
80
80
80
80
00
00
80
80
80
80
80
80
ENDCHAR
STARTCHAR 00A7
ENCODING 167
SWIDTH 533 0
DWIDTH 8 0
BBX 6 12 1 -1
BITMAP
7C
80
80
70
8C
84
84
64
18
04
04
F8
ENDCHAR
STARTCHAR 00A8
ENCODING 168
SWIDTH 533 0
DWIDTH 8 0
BBX 4 1 2 9
BITMAP
90
ENDCHAR
STARTCHAR 00A9
ENCODING 169
SWIDTH 866 0
DWIDTH 13 0
BBX 10 12 1 0
BITMAP
7FC0
8040
8040
9E40
9040
9040
9040
9040
9E40
8040
8040
7FC0
ENDCHAR
STARTCHAR 00AA
ENCODING 170
SWIDTH 400 0
DWIDTH 6 0
BBX 4 7 1 4
BITMAP
F0
10
10
F0
90
90
F0
ENDCHAR
STARTCHAR 00AB
ENCODING 171
SWIDTH 466 0
DWIDTH 7 0
BBX 7 7 0 1
BITMAP
16
24
48
D0
48
24
16
ENDCHAR
STARTCHAR 00AC
ENCODING 172
SWIDTH 600 0
DWIDTH 9 0
BBX 7 4 1 2
BITMAP
FE
02
02
02
ENDCHAR
STARTCHAR 00AD
ENCODING 173
SWIDTH 333 0
DWIDTH 5 0
BBX 4 1 1 4
BITMAP
F0
ENDCHAR
STARTCHAR 00AE
ENCODING 174
SWIDTH 866 0
DWIDTH 13 0
BBX 10 12 1 0
BITMAP
7FC0
8040
8040
9E40
9140
9140
9E40
9240
9140
8040
8040
7FC0
ENDCHAR
STARTCHAR 00AF
ENCODING 175
SWIDTH 533 0
DWIDTH 8 0
BBX 4 1 2 10
BITMAP
F0
ENDCHAR
STARTCHAR 00B0
ENCODING 176
SWIDTH 400 0
DWIDTH 6 0
BBX 4 5 1 6
BITMAP
F0
90
90
90
F0
ENDCHAR
STARTCHAR 00B1
ENCODING 177
SWIDTH 600 0
DWIDTH 9 0
BBX 7 9 1 0
BITMAP
10
10
10
FE
10
10
10
00
FE
ENDCHAR
STARTCHAR 00B2
ENCODING 178
SWIDTH 333 0
DWIDTH 5 0
BBX 4 7 1 4
BITMAP
E0
10
10
E0
80
80
F0
ENDCHAR
STARTCHAR 00B3
ENCODING 179
SWIDTH 333 0
DWIDTH 5 0
BBX 4 7 1 4
BITMAP
E0
10
10
E0
10
10
E0
ENDCHAR
STARTCHAR 00B4
ENCODING 180
SWIDTH 533 0
DWIDTH 8 0
BBX 2 3 3 9
BITMAP
40
40
80
ENDCHAR
STARTCHAR 00B5
ENCODING 181
SWIDTH 600 0
DWIDTH 9 0
BBX 7 11 1 -3
BITMAP
82
82
82
82
82
82
82
FC
80
80
80
ENDCHAR
STARTCHAR 00B6
ENCODING 182
SWIDTH 533 0
DWIDTH 8 0
BBX 6 14 1 -3
BITMAP
74
F4
F4
F4
F4
F4
74
04
04
04
04
04
04
04
ENDCHAR
STARTCHAR 00B7
ENCODING 183
SWIDTH 266 0
DWIDTH 4 0
BBX 2 2 1 4
BITMAP
C0
C0
ENDCHAR
STARTCHAR 00B8
ENCODING 184
SWIDTH 533 0
DWIDTH 8 0
BBX 3 3 2 -3
BITMAP
20
20
C0
ENDCHAR
STARTCHAR 00B9
ENCODING 185
SWIDTH 333 0
DWIDTH 5 0
BBX 4 7 1 4
BITMAP
C0
40
40
40
40
40
F0
ENDCHAR
STARTCHAR 00BA
ENCODING 186
SWIDTH 400 0
DWIDTH 6 0
BBX 5 7 1 4
BITMAP
F0
88
88
88
88
88
F0
ENDCHAR
STARTCHAR 00BB
ENCODING 187
SWIDTH 466 0
DWIDTH 7 0
BBX 6 7 1 1
BITMAP
A0
90
48
24
48
90
A0
ENDCHAR
STARTCHAR 00BC
ENCODING 188
SWIDTH 866 0
DWIDTH 13 0
BBX 11 11 1 0
BITMAP
C080
4100
4100
4200
4240
4480
F4A0
0920
0920
11E0
1020
ENDCHAR
STARTCHAR 00BD
ENCODING 189
SWIDTH 866 0
DWIDTH 13 0
BBX 12 11 1 0
BITMAP
C080
4100
4100
4200
42E0
4410
F410
08E0
0900
1100
10F0
ENDCHAR
STARTCHAR 00BE
ENCODING 190
SWIDTH 800 0
DWIDTH 12 0
BBX 11 11 1 0
BITMAP
E100
1100
1200
E200
1480
1480
E920
0920
1120
13E0
1020
ENDCHAR
STARTCHAR 00BF
ENCODING 191
SWIDTH 466 0
DWIDTH 7 0
BBX 6 11 1 -3
BITMAP
10
10
00
10
10
F0
80
80
80
80
FC
ENDCHAR
STARTCHAR 00C0
ENCODING 192
SWIDTH 600 0
DWIDTH 9 0
BBX 9 15 0 0
BITMAP
1000
0800
0800
0000
0C00
1400
1400
1200
2200
2200
2100
7F00
4100
4080
8080
ENDCHAR
STARTCHAR 00C1
ENCODING 193
SWIDTH 600 0
DWIDTH 9 0
BBX 9 15 0 0
BITMAP
0400
0400
0800
0000
0C00
1400
1400
1200
2200
2200
2100
7F00
4100
4080
8080
ENDCHAR
STARTCHAR 00C2
ENCODING 194
SWIDTH 600 0
DWIDTH 9 0
BBX 9 15 0 0
BITMAP
0800
1400
1200
0000
0C00
1400
1400
1200
2200
2200
2100
7F00
4100
4080
8080
ENDCHAR
STARTCHAR 00C3
ENCODING 195
SWIDTH 600 0
DWIDTH 9 0
BBX 9 14 0 0
BITMAP
1A00
2400
0000
0C00
1400
1400
1200
2200
2200
2100
7F00
4100
4080
8080
ENDCHAR
STARTCHAR 00C4
ENCODING 196
SWIDTH 600 0
DWIDTH 9 0
BBX 9 13 0 0
BITMAP
1400
0000
0C00
1400
1400
1200
2200
2200
2100
7F00
4100
4080
8080
ENDCHAR
STARTCHAR 00C5
ENCODING 197
SWIDTH 600 0
DWIDTH 9 0
BBX 9 15 0 0
BITMAP
1C00
1400
1C00
0000
0C00
1400
1400
1200
2200
2200
2100
7F00
4100
4080
8080
ENDCHAR
STARTCHAR 00C6
ENCODING 198
SWIDTH 866 0
DWIDTH 13 0
BBX 12 11 0 0
BITMAP
0FF0
1200
1200
1200
2200
23F0
2200
7E00
4200
4200
83F0
ENDCHAR
STARTCHAR 00C7
ENCODING 199
SWIDTH 600 0
DWIDTH 9 0
BBX 7 14 1 -3
BITMAP
7E
80
80
80
80
80
80
80
80
80
7E
08
08
38
ENDCHAR
STARTCHAR 00C8
ENCODING 200
SWIDTH 600 0
DWIDTH 9 0
BBX 7 15 1 0
BITMAP
20
10
08
00
FE
80
80
80
80
FE
80
80
80
80
FE
ENDCHAR
STARTCHAR 00C9
ENCODING 201
SWIDTH 600 0
DWIDTH 9 0
BBX 7 15 1 0
BITMAP
08
08
10
00
FE
80
80
80
80
FE
80
80
80
80
FE
ENDCHAR
STARTCHAR 00CA
ENCODING 202
SWIDTH 600 0
DWIDTH 9 0
BBX 7 15 1 0
BITMAP
10
38
24
00
FE
80
80
80
80
FE
80
80
80
80
FE
ENDCHAR
STARTCHAR 00CB
ENCODING 203
SWIDTH 600 0
DWIDTH 9 0
BBX 7 13 1 0
BITMAP
24
00
FE
80
80
80
80
FE
80
80
80
80
FE
ENDCHAR
STARTCHAR 00CC
ENCODING 204
SWIDTH 266 0
DWIDTH 4 0
BBX 3 15 0 0
BITMAP
80
40
20
00
40
40
40
40
40
40
40
40
40
40
40
ENDCHAR
STARTCHAR 00CD
ENCODING 205
SWIDTH 266 0
DWIDTH 4 0
BBX 3 15 1 0
BITMAP
60
40
80
00
80
80
80
80
80
80
80
80
80
80
80
ENDCHAR
STARTCHAR 00CE
ENCODING 206
SWIDTH 266 0
DWIDTH 4 0
BBX 4 15 0 0
BITMAP
40
60
90
00
40
40
40
40
40
40
40
40
40
40
40
ENDCHAR
STARTCHAR 00CF
ENCODING 207
SWIDTH 266 0
DWIDTH 4 0
BBX 4 13 0 0
BITMAP
90
00
40
40
40
40
40
40
40
40
40
40
40
ENDCHAR
STARTCHAR 00D0
ENCODING 208
SWIDTH 666 0
DWIDTH 10 0
BBX 9 11 0 0
BITMAP
7F00
6080
6080
6080
6080
F880
6080
6080
6080
6080
7F00
ENDCHAR
STARTCHAR 00D1
ENCODING 209
SWIDTH 733 0
DWIDTH 11 0
BBX 8 14 1 0
BITMAP
12
2C
00
C1
C1
A1
91
91
89
8D
85
83
83
81
ENDCHAR
STARTCHAR 00D2
ENCODING 210
SWIDTH 666 0
DWIDTH 10 0
BBX 8 15 1 0
BITMAP
10
10
08
00
7F
81
81
81
81
81
81
81
81
81
7F
ENDCHAR
STARTCHAR 00D3
ENCODING 211
SWIDTH 666 0
DWIDTH 10 0
BBX 8 15 1 0
BITMAP
04
08
10
00
7F
81
81
81
81
81
81
81
81
81
7F
ENDCHAR
STARTCHAR 00D4
ENCODING 212
SWIDTH 666 0
DWIDTH 10 0
BBX 8 15 1 0
BITMAP
08
18
24
00
7F
81
81
81
81
81
81
81
81
81
7F
ENDCHAR
STARTCHAR 00D5
ENCODING 213
SWIDTH 666 0
DWIDTH 10 0
BBX 8 14 1 0
BITMAP
12
2C
00
7F
81
81
81
81
81
81
81
81
81
7F
ENDCHAR
STARTCHAR 00D6
ENCODING 214
SWIDTH 666 0
DWIDTH 10 0
BBX 8 13 1 0
BITMAP
24
00
7F
81
81
81
81
81
81
81
81
81
7F
ENDCHAR
STARTCHAR 00D7
ENCODING 215
SWIDTH 600 0
DWIDTH 9 0
BBX 6 7 1 2
BITMAP
84
44
28
10
28
44
84
ENDCHAR
STARTCHAR 00D8
ENCODING 216
SWIDTH 666 0
DWIDTH 10 0
BBX 8 11 1 0
BITMAP
7F
81
81
83
85
89
91
A1
C1
81
7F
ENDCHAR
STARTCHAR 00D9
ENCODING 217
SWIDTH 666 0
DWIDTH 10 0
BBX 8 15 1 0
BITMAP
30
10
08
00
81
81
81
81
81
81
81
81
81
81
7E
ENDCHAR
STARTCHAR 00DA
ENCODING 218
SWIDTH 666 0
DWIDTH 10 0
BBX 8 15 1 0
BITMAP
04
08
10
00
81
81
81
81
81
81
81
81
81
81
7E
ENDCHAR
STARTCHAR 00DB
ENCODING 219
SWIDTH 666 0
DWIDTH 10 0
BBX 8 15 1 0
BITMAP
08
18
24
00
81
81
81
81
81
81
81
81
81
81
7E
ENDCHAR
STARTCHAR 00DC
ENCODING 220
SWIDTH 666 0
DWIDTH 10 0
BBX 8 13 1 0
BITMAP
24
00
81
81
81
81
81
81
81
81
81
81
7E
ENDCHAR
STARTCHAR 00DD
ENCODING 221
SWIDTH 600 0
DWIDTH 9 0
BBX 8 15 0 0
BITMAP
04
08
10
00
C1
43
62
26
14
18
08
08
08
08
08
ENDCHAR
STARTCHAR 00DE
ENCODING 222
SWIDTH 600 0
DWIDTH 9 0
BBX 7 11 1 0
BITMAP
80
80
FE
82
82
82
82
82
FE
80
80
ENDCHAR
STARTCHAR 00DF
ENCODING 223
SWIDTH 600 0
DWIDTH 9 0
BBX 7 11 1 0
BITMAP
7C
84
82
82
84
9C
82
82
82
82
9C
ENDCHAR
STARTCHAR 00E0
ENCODING 224
SWIDTH 533 0
DWIDTH 8 0
BBX 6 12 1 0
BITMAP
40
20
10
00
78
04
04
7C
84
84
84
FC
ENDCHAR
STARTCHAR 00E1
ENCODING 225
SWIDTH 533 0
DWIDTH 8 0
BBX 6 12 1 0
BITMAP
08
10
20
00
78
04
04
7C
84
84
84
FC
ENDCHAR
STARTCHAR 00E2
ENCODING 226
SWIDTH 533 0
DWIDTH 8 0
BBX 6 12 1 0
BITMAP
10
30
48
00
78
04
04
7C
84
84
84
FC
ENDCHAR
STARTCHAR 00E3
ENCODING 227
SWIDTH 533 0
DWIDTH 8 0
BBX 6 11 1 0
BITMAP
28
58
00
78
04
04
7C
84
84
84
FC
ENDCHAR
STARTCHAR 00E4
ENCODING 228
SWIDTH 533 0
DWIDTH 8 0
BBX 6 10 1 0
BITMAP
48
00
78
04
04
7C
84
84
84
FC
ENDCHAR
STARTCHAR 00E5
ENCODING 229
SWIDTH 533 0
DWIDTH 8 0
BBX 6 12 1 0
BITMAP
30
48
30
00
78
04
04
7C
84
84
84
FC
ENDCHAR
STARTCHAR 00E6
ENCODING 230
SWIDTH 866 0
DWIDTH 13 0
BBX 11 8 1 0
BITMAP
7BC0
0420
0420
7FE0
8400
8400
8400
FBE0
ENDCHAR
STARTCHAR 00E7
ENCODING 231
SWIDTH 533 0
DWIDTH 8 0
BBX 6 11 1 -3
BITMAP
7C
80
80
80
80
80
80
7C
08
08
30
ENDCHAR
STARTCHAR 00E8
ENCODING 232
SWIDTH 600 0
DWIDTH 9 0
BBX 6 12 1 0
BITMAP
20
20
10
00
7C
84
84
FC
80
80
80
7C
ENDCHAR
STARTCHAR 00E9
ENCODING 233
SWIDTH 600 0
DWIDTH 9 0
BBX 6 12 1 0
BITMAP
08
10
20
00
7C
84
84
FC
80
80
80
7C
ENDCHAR
STARTCHAR 00EA
ENCODING 234
SWIDTH 600 0
DWIDTH 9 0
BBX 6 12 1 0
BITMAP
10
38
48
00
7C
84
84
FC
80
80
80
7C
ENDCHAR
STARTCHAR 00EB
ENCODING 235
SWIDTH 600 0
DWIDTH 9 0
BBX 6 10 1 0
BITMAP
68
00
7C
84
84
FC
80
80
80
7C
ENDCHAR
STARTCHAR 00EC
ENCODING 236
SWIDTH 200 0
DWIDTH 3 0
BBX 3 12 0 0
BITMAP
80
40
20
00
40
40
40
40
40
40
40
40
ENDCHAR
STARTCHAR 00ED
ENCODING 237
SWIDTH 200 0
DWIDTH 3 0
BBX 2 12 1 0
BITMAP
40
40
80
00
80
80
80
80
80
80
80
80
ENDCHAR
STARTCHAR 00EE
ENCODING 238
SWIDTH 200 0
DWIDTH 3 0
BBX 4 12 0 0
BITMAP
40
E0
90
00
40
40
40
40
40
40
40
40
ENDCHAR
STARTCHAR 00EF
ENCODING 239
SWIDTH 200 0
DWIDTH 3 0
BBX 4 10 0 0
BITMAP
B0
00
40
40
40
40
40
40
40
40
ENDCHAR
STARTCHAR 00F0
ENCODING 240
SWIDTH 600 0
DWIDTH 9 0
BBX 7 11 1 0
BITMAP
10
0E
38
04
7E
82
82
82
82
82
7C
ENDCHAR
STARTCHAR 00F1
ENCODING 241
SWIDTH 600 0
DWIDTH 9 0
BBX 7 11 1 0
BITMAP
24
58
00
FC
82
82
82
82
82
82
82
ENDCHAR
STARTCHAR 00F2
ENCODING 242
SWIDTH 600 0
DWIDTH 9 0
BBX 7 12 1 0
BITMAP
20
20
10
00
7C
82
82
82
82
82
82
7C
ENDCHAR
STARTCHAR 00F3
ENCODING 243
SWIDTH 600 0
DWIDTH 9 0
BBX 7 12 1 0
BITMAP
08
10
10
00
7C
82
82
82
82
82
82
7C
ENDCHAR
STARTCHAR 00F4
ENCODING 244
SWIDTH 600 0
DWIDTH 9 0
BBX 7 12 1 0
BITMAP
10
28
48
00
7C
82
82
82
82
82
82
7C
ENDCHAR
STARTCHAR 00F5
ENCODING 245
SWIDTH 600 0
DWIDTH 9 0
BBX 7 11 1 0
BITMAP
24
58
00
7C
82
82
82
82
82
82
7C
ENDCHAR
STARTCHAR 00F6
ENCODING 246
SWIDTH 600 0
DWIDTH 9 0
BBX 7 10 1 0
BITMAP
28
00
7C
82
82
82
82
82
82
7C
ENDCHAR
STARTCHAR 00F7
ENCODING 247
SWIDTH 600 0
DWIDTH 9 0
BBX 7 7 1 2
BITMAP
10
00
00
FE
00
00
10
ENDCHAR
STARTCHAR 00F8
ENCODING 248
SWIDTH 600 0
DWIDTH 9 0
BBX 7 8 1 0
BITMAP
7C
82
8E
92
A2
C2
82
7C
ENDCHAR
STARTCHAR 00F9
ENCODING 249
SWIDTH 600 0
DWIDTH 9 0
BBX 7 12 1 0
BITMAP
20
20
10
00
82
82
82
82
82
82
82
7E
ENDCHAR
STARTCHAR 00FA
ENCODING 250
SWIDTH 600 0
DWIDTH 9 0
BBX 7 12 1 0
BITMAP
08
10
10
00
82
82
82
82
82
82
82
7E
ENDCHAR
STARTCHAR 00FB
ENCODING 251
SWIDTH 600 0
DWIDTH 9 0
BBX 7 12 1 0
BITMAP
10
28
48
00
82
82
82
82
82
82
82
7E
ENDCHAR
STARTCHAR 00FC
ENCODING 252
SWIDTH 600 0
DWIDTH 9 0
BBX 7 10 1 0
BITMAP
28
00
82
82
82
82
82
82
82
7E
ENDCHAR
STARTCHAR 00FD
ENCODING 253
SWIDTH 533 0
DWIDTH 8 0
BBX 7 15 0 -3
BITMAP
0C
08
10
00
82
42
42
44
24
24
28
18
10
10
10
ENDCHAR
STARTCHAR 00FE
ENCODING 254
SWIDTH 600 0
DWIDTH 9 0
BBX 7 14 1 -3
BITMAP
80
80
80
FC
82
82
82
82
82
82
FC
80
80
80
ENDCHAR
STARTCHAR 00FF
ENCODING 255
SWIDTH 533 0
DWIDTH 8 0
BBX 7 13 0 -3
BITMAP
24
00
82
42
42
44
24
24
28
18
10
10
10
ENDCHAR
STARTCHAR 0100
ENCODING 256
SWIDTH 600 0
DWIDTH 9 0
BBX 9 13 0 0
BITMAP
1E00
0000
0C00
1400
1400
1200
2200
2200
2100
7F00
4100
4080
8080
ENDCHAR
STARTCHAR 0101
ENCODING 257
SWIDTH 533 0
DWIDTH 8 0
BBX 6 11 1 0
BITMAP
78
00
00
78
04
04
7C
84
84
84
FC
ENDCHAR
STARTCHAR 0102
ENCODING 258
SWIDTH 600 0
DWIDTH 9 0
BBX 9 14 0 0
BITMAP
1200
1C00
0000
0C00
1400
1400
1200
2200
2200
2100
7F00
4100
4080
8080
ENDCHAR
STARTCHAR 0103
ENCODING 259
SWIDTH 533 0
DWIDTH 8 0
BBX 6 11 1 0
BITMAP
48
78
00
78
04
04
7C
84
84
84
FC
ENDCHAR
STARTCHAR 0104
ENCODING 260
SWIDTH 600 0
DWIDTH 9 0
BBX 9 14 0 -3
BITMAP
0C00
1400
1400
1200
2200
2200
2100
7F00
4100
4080
8180
0200
0200
0180
ENDCHAR
STARTCHAR 0105
ENCODING 261
SWIDTH 533 0
DWIDTH 8 0
BBX 6 11 1 -3
BITMAP
78
04
04
7C
84
84
84
FC
10
10
0C
ENDCHAR
STARTCHAR 0106
ENCODING 262
SWIDTH 600 0
DWIDTH 9 0
BBX 7 15 1 0
BITMAP
04
08
10
00
7E
80
80
80
80
80
80
80
80
80
7E
ENDCHAR
STARTCHAR 0107
ENCODING 263
SWIDTH 533 0
DWIDTH 8 0
BBX 6 12 1 0
BITMAP
08
10
20
00
7C
80
80
80
80
80
80
7C
ENDCHAR
STARTCHAR 010C
ENCODING 268
SWIDTH 600 0
DWIDTH 9 0
BBX 7 15 1 0
BITMAP
24
18
08
00
7E
80
80
80
80
80
80
80
80
80
7E
ENDCHAR
STARTCHAR 010D
ENCODING 269
SWIDTH 533 0
DWIDTH 8 0
BBX 6 12 1 0
BITMAP
48
38
10
00
7C
80
80
80
80
80
80
7C
ENDCHAR
STARTCHAR 010E
ENCODING 270
SWIDTH 666 0
DWIDTH 10 0
BBX 8 15 1 0
BITMAP
24
18
10
00
FE
83
81
81
81
81
81
81
81
83
FE
ENDCHAR
STARTCHAR 010F
ENCODING 271
SWIDTH 600 0
DWIDTH 9 0
BBX 9 12 1 0
BITMAP
0080
0500
0500
0400
7C00
8400
8400
8400
8400
8400
8400
7C00
ENDCHAR
STARTCHAR 0110
ENCODING 272
SWIDTH 666 0
DWIDTH 10 0
BBX 9 11 0 0
BITMAP
7F00
6080
6080
6080
6080
F880
6080
6080
6080
6080
7F00
ENDCHAR
STARTCHAR 0111
ENCODING 273
SWIDTH 600 0
DWIDTH 9 0
BBX 8 11 1 0
BITMAP
04
1F
04
7C
84
84
84
84
84
84
7C
ENDCHAR
STARTCHAR 0112
ENCODING 274
SWIDTH 600 0
DWIDTH 9 0
BBX 7 13 1 0
BITMAP
3C
00
FE
80
80
80
80
FE
80
80
80
80
FE
ENDCHAR
STARTCHAR 0113
ENCODING 275
SWIDTH 600 0
DWIDTH 9 0
BBX 6 11 1 0
BITMAP
78
00
00
7C
84
84
FC
80
80
80
7C
ENDCHAR
STARTCHAR 0116
ENCODING 278
SWIDTH 600 0
DWIDTH 9 0
BBX 7 13 1 0
BITMAP
10
00
FE
80
80
80
80
FE
80
80
80
80
FE
ENDCHAR
STARTCHAR 0117
ENCODING 279
SWIDTH 600 0
DWIDTH 9 0
BBX 6 10 1 0
BITMAP
10
00
7C
84
84
FC
80
80
80
7C
ENDCHAR
STARTCHAR 0118
ENCODING 280
SWIDTH 600 0
DWIDTH 9 0
BBX 7 14 1 -3
BITMAP
FE
80
80
80
80
FE
80
80
80
80
FE
08
08
06
ENDCHAR
STARTCHAR 0119
ENCODING 281
SWIDTH 600 0
DWIDTH 9 0
BBX 6 11 1 -3
BITMAP
7C
84
84
FC
80
80
80
7C
10
10
0C
ENDCHAR
STARTCHAR 011A
ENCODING 282
SWIDTH 600 0
DWIDTH 9 0
BBX 7 15 1 0
BITMAP
24
38
10
00
FE
80
80
80
80
FE
80
80
80
80
FE
ENDCHAR
STARTCHAR 011B
ENCODING 283
SWIDTH 600 0
DWIDTH 9 0
BBX 6 12 1 0
BITMAP
48
38
10
00
7C
84
84
FC
80
80
80
7C
ENDCHAR
STARTCHAR 011E
ENCODING 286
SWIDTH 666 0
DWIDTH 10 0
BBX 8 14 1 0
BITMAP
24
3C
00
7F
80
80
80
80
8F
81
81
81
81
7F
ENDCHAR
STARTCHAR 011F
ENCODING 287
SWIDTH 600 0
DWIDTH 9 0
BBX 6 14 1 -3
BITMAP
48
38
00
7C
84
84
84
84
84
84
7C
04
04
7C
ENDCHAR
STARTCHAR 0122
ENCODING 290
SWIDTH 666 0
DWIDTH 10 0
BBX 8 14 1 -3
BITMAP
7F
80
80
80
80
8F
81
81
81
81
7F
00
18
10
ENDCHAR
STARTCHAR 0123
ENCODING 291
SWIDTH 600 0
DWIDTH 9 0
BBX 6 14 1 -3
BITMAP
10
10
00
7C
84
84
84
84
84
84
7C
04
04
7C
ENDCHAR
STARTCHAR 012A
ENCODING 298
SWIDTH 266 0
DWIDTH 4 0
BBX 4 13 0 0
BITMAP
F0
00
40
40
40
40
40
40
40
40
40
40
40
ENDCHAR
STARTCHAR 012B
ENCODING 299
SWIDTH 200 0
DWIDTH 3 0
BBX 4 11 0 0
BITMAP
F0
00
00
40
40
40
40
40
40
40
40
ENDCHAR
STARTCHAR 012E
ENCODING 302
SWIDTH 266 0
DWIDTH 4 0
BBX 3 14 0 -3
BITMAP
40
40
40
40
40
40
40
40
40
40
40
80
80
60
ENDCHAR
STARTCHAR 012F
ENCODING 303
SWIDTH 200 0
DWIDTH 3 0
BBX 3 13 0 -3
BITMAP
40
00
40
40
40
40
40
40
40
40
80
80
60
ENDCHAR
STARTCHAR 0130
ENCODING 304
SWIDTH 266 0
DWIDTH 4 0
BBX 1 13 1 0
BITMAP
80
00
80
80
80
80
80
80
80
80
80
80
80
ENDCHAR
STARTCHAR 0131
ENCODING 305
SWIDTH 200 0
DWIDTH 3 0
BBX 1 8 1 0
BITMAP
80
80
80
80
80
80
80
80
ENDCHAR
STARTCHAR 0136
ENCODING 310
SWIDTH 600 0
DWIDTH 9 0
BBX 8 14 1 -3
BITMAP
82
84
8C
88
90
B0
C8
84
84
82
83
00
10
10
ENDCHAR
STARTCHAR 0137
ENCODING 311
SWIDTH 533 0
DWIDTH 8 0
BBX 6 14 1 -3
BITMAP
80
80
80
84
88
90
A0
D0
88
88
84
00
30
20
ENDCHAR
STARTCHAR 0139
ENCODING 313
SWIDTH 533 0
DWIDTH 8 0
BBX 7 15 1 0
BITMAP
20
40
80
00
80
80
80
80
80
80
80
80
80
80
FE
ENDCHAR
STARTCHAR 013A
ENCODING 314
SWIDTH 266 0
DWIDTH 4 0
BBX 2 15 1 0
BITMAP
40
40
80
00
80
80
80
80
80
80
80
80
80
80
40
ENDCHAR
STARTCHAR 013B
ENCODING 315
SWIDTH 533 0
DWIDTH 8 0
BBX 7 14 1 -3
BITMAP
80
80
80
80
80
80
80
80
80
80
FE
00
10
10
ENDCHAR
STARTCHAR 013C
ENCODING 316
SWIDTH 266 0
DWIDTH 4 0
BBX 2 14 1 -3
BITMAP
80
80
80
80
80
80
80
80
80
80
40
00
40
80
ENDCHAR
STARTCHAR 013D
ENCODING 317
SWIDTH 533 0
DWIDTH 8 0
BBX 7 11 1 0
BITMAP
88
90
90
80
80
80
80
80
80
80
FE
ENDCHAR
STARTCHAR 013E
ENCODING 318
SWIDTH 266 0
DWIDTH 4 0
BBX 3 12 1 0
BITMAP
20
A0
A0
80
80
80
80
80
80
80
80
40
ENDCHAR
STARTCHAR 0141
ENCODING 321
SWIDTH 533 0
DWIDTH 8 0
BBX 8 11 0 0
BITMAP
40
40
40
40
48
70
C0
40
40
40
7F
ENDCHAR
STARTCHAR 0142
ENCODING 322
SWIDTH 266 0
DWIDTH 4 0
BBX 4 11 0 0
BITMAP
40
40
40
40
50
60
C0
40
40
40
20
ENDCHAR
STARTCHAR 0143
ENCODING 323
SWIDTH 733 0
DWIDTH 11 0
BBX 8 15 1 0
BITMAP
04
08
08
00
C1
C1
A1
91
91
89
8D
85
83
83
81
ENDCHAR
STARTCHAR 0144
ENCODING 324
SWIDTH 600 0
DWIDTH 9 0
BBX 7 12 1 0
BITMAP
08
10
10
00
FC
82
82
82
82
82
82
82
ENDCHAR
STARTCHAR 0145
ENCODING 325
SWIDTH 733 0
DWIDTH 11 0
BBX 8 14 1 -3
BITMAP
C1
C1
A1
91
91
89
8D
85
83
83
81
00
08
10
ENDCHAR
STARTCHAR 0146
ENCODING 326
SWIDTH 600 0
DWIDTH 9 0
BBX 7 11 1 -3
BITMAP
FC
82
82
82
82
82
82
82
00
10
20
ENDCHAR
STARTCHAR 0147
ENCODING 327
SWIDTH 733 0
DWIDTH 11 0
BBX 8 15 1 0
BITMAP
24
14
08
00
C1
C1
A1
91
91
89
8D
85
83
83
81
ENDCHAR
STARTCHAR 0148
ENCODING 328
SWIDTH 600 0
DWIDTH 9 0
BBX 7 12 1 0
BITMAP
48
28
10
00
FC
82
82
82
82
82
82
82
ENDCHAR
STARTCHAR 014C
ENCODING 332
SWIDTH 666 0
DWIDTH 10 0
BBX 8 13 1 0
BITMAP
3C
00
7F
81
81
81
81
81
81
81
81
81
7F
ENDCHAR
STARTCHAR 014D
ENCODING 333
SWIDTH 600 0
DWIDTH 9 0
BBX 7 11 1 0
BITMAP
78
00
00
7C
82
82
82
82
82
82
7C
ENDCHAR
STARTCHAR 0150
ENCODING 336
SWIDTH 666 0
DWIDTH 10 0
BBX 8 15 1 0
BITMAP
0A
12
24
00
7F
81
81
81
81
81
81
81
81
81
7F
ENDCHAR
STARTCHAR 0151
ENCODING 337
SWIDTH 600 0
DWIDTH 9 0
BBX 7 12 1 0
BITMAP
14
24
28
00
7C
82
82
82
82
82
82
7C
ENDCHAR
STARTCHAR 0152
ENCODING 338
SWIDTH 933 0
DWIDTH 14 0
BBX 13 11 1 0
BITMAP
7FF8
8200
8200
8200
8200
83F0
8200
8200
8200
8200
7FF8
ENDCHAR
STARTCHAR 0153
ENCODING 339
SWIDTH 933 0
DWIDTH 14 0
BBX 12 8 1 0
BITMAP
7FE0
8410
8410
87F0
8400
8400
8600
7FE0
ENDCHAR
STARTCHAR 0154
ENCODING 340
SWIDTH 666 0
DWIDTH 10 0
BBX 8 15 1 0
BITMAP
08
08
10
00
FE
82
82
82
82
FE
84
84
82
82
81
ENDCHAR
STARTCHAR 0155
ENCODING 341
SWIDTH 333 0
DWIDTH 5 0
BBX 4 12 1 0
BITMAP
10
20
40
00
F0
80
80
80
80
80
80
80
ENDCHAR
STARTCHAR 0156
ENCODING 342
SWIDTH 666 0
DWIDTH 10 0
BBX 8 14 1 -3
BITMAP
FE
82
82
82
82
FE
84
84
82
82
81
00
10
10
ENDCHAR
STARTCHAR 0157
ENCODING 343
SWIDTH 333 0
DWIDTH 5 0
BBX 4 11 1 -3
BITMAP
F0
80
80
80
80
80
80
80
00
80
80
ENDCHAR
STARTCHAR 0158
ENCODING 344
SWIDTH 666 0
DWIDTH 10 0
BBX 8 15 1 0
BITMAP
24
38
10
00
FE
82
82
82
82
FE
84
84
82
82
81
ENDCHAR
STARTCHAR 0159
ENCODING 345
SWIDTH 333 0
DWIDTH 5 0
BBX 4 12 1 0
BITMAP
90
60
20
00
F0
80
80
80
80
80
80
80
ENDCHAR
STARTCHAR 015A
ENCODING 346
SWIDTH 600 0
DWIDTH 9 0
BBX 7 15 1 0
BITMAP
08
10
10
00
7C
80
80
80
C0
3C
06
02
02
02
FC
ENDCHAR
STARTCHAR 015B
ENCODING 347
SWIDTH 466 0
DWIDTH 7 0
BBX 6 12 1 0
BITMAP
10
10
20
00
78
80
80
E0
18
04
08
F8
ENDCHAR
STARTCHAR 015E
ENCODING 350
SWIDTH 600 0
DWIDTH 9 0
BBX 7 14 1 -3
BITMAP
7C
80
80
80
C0
3C
06
02
02
02
FC
08
08
30
ENDCHAR
STARTCHAR 015F
ENCODING 351
SWIDTH 466 0
DWIDTH 7 0
BBX 6 11 1 -3
BITMAP
78
80
80
E0
18
04
08
F8
10
10
60
ENDCHAR
STARTCHAR 0160
ENCODING 352
SWIDTH 600 0
DWIDTH 9 0
BBX 7 15 1 0
BITMAP
48
28
10
00
7C
80
80
80
C0
3C
06
02
02
02
FC
ENDCHAR
STARTCHAR 0161
ENCODING 353
SWIDTH 466 0
DWIDTH 7 0
BBX 6 12 1 0
BITMAP
48
70
20
00
78
80
80
E0
18
04
08
F8
ENDCHAR
STARTCHAR 0162
ENCODING 354
SWIDTH 600 0
DWIDTH 9 0
BBX 8 14 0 -3
BITMAP
FF
08
08
08
08
08
08
08
08
08
08
04
04
18
ENDCHAR
STARTCHAR 0163
ENCODING 355
SWIDTH 400 0
DWIDTH 6 0
BBX 4 14 1 -3
BITMAP
80
80
80
F0
80
80
80
80
80
80
70
10
10
60
ENDCHAR
STARTCHAR 0164
ENCODING 356
SWIDTH 600 0
DWIDTH 9 0
BBX 8 15 0 0
BITMAP
24
14
08
00
FF
08
08
08
08
08
08
08
08
08
08
ENDCHAR
STARTCHAR 0165
ENCODING 357
SWIDTH 400 0
DWIDTH 6 0
BBX 4 12 1 0
BITMAP
10
A0
A0
80
F0
80
80
80
80
80
80
70
ENDCHAR
STARTCHAR 016A
ENCODING 362
SWIDTH 666 0
DWIDTH 10 0
BBX 8 13 1 0
BITMAP
3C
00
81
81
81
81
81
81
81
81
81
81
7E
ENDCHAR
STARTCHAR 016B
ENCODING 363
SWIDTH 600 0
DWIDTH 9 0
BBX 7 11 1 0
BITMAP
78
00
00
82
82
82
82
82
82
82
7E
ENDCHAR
STARTCHAR 016E
ENCODING 366
SWIDTH 666 0
DWIDTH 10 0
BBX 8 15 1 0
BITMAP
1C
14
1C
00
81
81
81
81
81
81
81
81
81
81
7E
ENDCHAR
STARTCHAR 016F
ENCODING 367
SWIDTH 600 0
DWIDTH 9 0
BBX 7 12 1 0
BITMAP
38
28
38
00
82
82
82
82
82
82
82
7E
ENDCHAR
STARTCHAR 0170
ENCODING 368
SWIDTH 666 0
DWIDTH 10 0
BBX 8 15 1 0
BITMAP
0A
14
24
00
81
81
81
81
81
81
81
81
81
81
7E
ENDCHAR
STARTCHAR 0171
ENCODING 369
SWIDTH 600 0
DWIDTH 9 0
BBX 7 12 1 0
BITMAP
14
24
28
00
82
82
82
82
82
82
82
7E
ENDCHAR
STARTCHAR 0172
ENCODING 370
SWIDTH 666 0
DWIDTH 10 0
BBX 8 14 1 -3
BITMAP
81
81
81
81
81
81
81
81
81
81
7E
08
08
0C
ENDCHAR
STARTCHAR 0173
ENCODING 371
SWIDTH 600 0
DWIDTH 9 0
BBX 7 11 1 -3
BITMAP
82
82
82
82
82
82
82
7E
08
08
0E
ENDCHAR
STARTCHAR 0178
ENCODING 376
SWIDTH 600 0
DWIDTH 9 0
BBX 8 13 0 0
BITMAP
24
00
C1
43
62
26
14
18
08
08
08
08
08
ENDCHAR
STARTCHAR 0179
ENCODING 377
SWIDTH 600 0
DWIDTH 9 0
BBX 7 15 1 0
BITMAP
08
10
10
00
FE
06
04
08
18
10
20
20
40
80
FE
ENDCHAR
STARTCHAR 017A
ENCODING 378
SWIDTH 533 0
DWIDTH 8 0
BBX 6 12 1 0
BITMAP
18
10
20
00
FC
08
10
10
20
40
80
FC
ENDCHAR
STARTCHAR 017B
ENCODING 379
SWIDTH 600 0
DWIDTH 9 0
BBX 7 13 1 0
BITMAP
10
00
FE
06
04
08
18
10
20
20
40
80
FE
ENDCHAR
STARTCHAR 017C
ENCODING 380
SWIDTH 533 0
DWIDTH 8 0
BBX 6 10 1 0
BITMAP
20
00
FC
08
10
10
20
40
80
FC
ENDCHAR
STARTCHAR 017D
ENCODING 381
SWIDTH 600 0
DWIDTH 9 0
BBX 7 15 1 0
BITMAP
48
28
10
00
FE
06
04
08
18
10
20
20
40
80
FE
ENDCHAR
STARTCHAR 017E
ENCODING 382
SWIDTH 533 0
DWIDTH 8 0
BBX 6 12 1 0
BITMAP
48
30
20
00
FC
08
10
10
20
40
80
FC
ENDCHAR
STARTCHAR 0192
ENCODING 402
SWIDTH 600 0
DWIDTH 9 0
BBX 6 13 1 -2
BITMAP
3C
20
20
3C
20
20
20
20
20
20
20
20
C0
ENDCHAR
STARTCHAR 0218
ENCODING 536
SWIDTH 600 0
DWIDTH 9 0
BBX 7 14 1 -3
BITMAP
7C
80
80
80
C0
3C
06
02
02
02
FC
00
10
20
ENDCHAR
STARTCHAR 0219
ENCODING 537
SWIDTH 466 0
DWIDTH 7 0
BBX 6 11 1 -3
BITMAP
78
80
80
E0
18
04
08
F8
00
20
20
ENDCHAR
STARTCHAR 021A
ENCODING 538
SWIDTH 600 0
DWIDTH 9 0
BBX 8 14 0 -3
BITMAP
FF
08
08
08
08
08
08
08
08
08
08
00
08
10
ENDCHAR
STARTCHAR 021B
ENCODING 539
SWIDTH 400 0
DWIDTH 6 0
BBX 4 14 1 -3
BITMAP
80
80
80
F0
80
80
80
80
80
80
70
00
20
40
ENDCHAR
STARTCHAR 0237
ENCODING 567
SWIDTH 200 0
DWIDTH 3 0
BBX 2 11 0 -3
BITMAP
40
40
40
40
40
40
40
40
40
40
C0
ENDCHAR
STARTCHAR 02C6
ENCODING 710
SWIDTH 533 0
DWIDTH 8 0
BBX 4 3 2 9
BITMAP
40
E0
90
ENDCHAR
STARTCHAR 02C7
ENCODING 711
SWIDTH 533 0
DWIDTH 8 0
BBX 4 3 2 9
BITMAP
90
E0
40
ENDCHAR
STARTCHAR 02C9
ENCODING 713
SWIDTH 533 0
DWIDTH 8 0
BBX 4 1 2 10
BITMAP
F0
ENDCHAR
STARTCHAR 02D8
ENCODING 728
SWIDTH 533 0
DWIDTH 8 0
BBX 4 2 2 9
BITMAP
90
E0
ENDCHAR
STARTCHAR 02D9
ENCODING 729
SWIDTH 533 0
DWIDTH 8 0
BBX 1 1 3 9
BITMAP
80
ENDCHAR
STARTCHAR 02DA
ENCODING 730
SWIDTH 533 0
DWIDTH 8 0
BBX 3 3 2 9
BITMAP
E0
A0
E0
ENDCHAR
STARTCHAR 02DB
ENCODING 731
SWIDTH 533 0
DWIDTH 8 0
BBX 3 4 3 -3
BITMAP
C0
80
80
E0
ENDCHAR
STARTCHAR 02DC
ENCODING 732
SWIDTH 533 0
DWIDTH 8 0
BBX 4 2 2 9
BITMAP
D0
A0
ENDCHAR
STARTCHAR 02DD
ENCODING 733
SWIDTH 533 0
DWIDTH 8 0
BBX 5 3 2 9
BITMAP
48
50
A0
ENDCHAR
STARTCHAR 0300
ENCODING 768
SWIDTH 0 0
DWIDTH 0 0
BBX 3 3 -6 9
BITMAP
80
40
20
ENDCHAR
STARTCHAR 0301
ENCODING 769
SWIDTH 0 0
DWIDTH 0 0
BBX 2 3 -5 9
BITMAP
40
40
80
ENDCHAR
STARTCHAR 0302
ENCODING 770
SWIDTH 0 0
DWIDTH 0 0
BBX 4 3 -6 9
BITMAP
40
E0
90
ENDCHAR
STARTCHAR 0303
ENCODING 771
SWIDTH 0 0
DWIDTH 0 0
BBX 5 2 -7 9
BITMAP
68
90
ENDCHAR
STARTCHAR 0304
ENCODING 772
SWIDTH 0 0
DWIDTH 0 0
BBX 4 1 -6 10
BITMAP
F0
ENDCHAR
STARTCHAR 0306
ENCODING 774
SWIDTH 0 0
DWIDTH 0 0
BBX 4 2 -6 9
BITMAP
90
E0
ENDCHAR
STARTCHAR 0307
ENCODING 775
SWIDTH 0 0
DWIDTH 0 0
BBX 1 1 -5 9
BITMAP
80
ENDCHAR
STARTCHAR 0308
ENCODING 776
SWIDTH 0 0
DWIDTH 0 0
BBX 4 1 -6 9
BITMAP
90
ENDCHAR
STARTCHAR 030A
ENCODING 778
SWIDTH 0 0
DWIDTH 0 0
BBX 3 3 -6 9
BITMAP
E0
A0
E0
ENDCHAR
STARTCHAR 030B
ENCODING 779
SWIDTH 0 0
DWIDTH 0 0
BBX 5 3 -6 9
BITMAP
48
50
A0
ENDCHAR
STARTCHAR 030C
ENCODING 780
SWIDTH 0 0
DWIDTH 0 0
BBX 4 3 -6 9
BITMAP
90
E0
40
ENDCHAR
STARTCHAR 0326
ENCODING 806
SWIDTH 0 0
DWIDTH 0 0
BBX 1 2 -5 -3
BITMAP
80
80
ENDCHAR
STARTCHAR 0327
ENCODING 807
SWIDTH 0 0
DWIDTH 0 0
BBX 3 3 -6 -3
BITMAP
20
20
C0
ENDCHAR
STARTCHAR 0328
ENCODING 808
SWIDTH 0 0
DWIDTH 0 0
BBX 2 4 -5 -3
BITMAP
80
80
80
C0
ENDCHAR
STARTCHAR 03C0
ENCODING 960
SWIDTH 600 0
DWIDTH 9 0
BBX 7 8 1 0
BITMAP
FE
82
82
82
82
82
82
82
ENDCHAR
STARTCHAR 1E9E
ENCODING 7838
SWIDTH 666 0
DWIDTH 10 0
BBX 8 11 1 0
BITMAP
7E
82
84
8C
88
9F
81
81
81
81
9F
ENDCHAR
STARTCHAR 2013
ENCODING 8211
SWIDTH 600 0
DWIDTH 9 0
BBX 7 1 1 4
BITMAP
FE
ENDCHAR
STARTCHAR 2014
ENCODING 8212
SWIDTH 1000 0
DWIDTH 15 0
BBX 13 1 1 4
BITMAP
FFF8
ENDCHAR
STARTCHAR 2018
ENCODING 8216
SWIDTH 266 0
DWIDTH 4 0
BBX 2 4 1 7
BITMAP
40
40
80
80
ENDCHAR
STARTCHAR 2019
ENCODING 8217
SWIDTH 266 0
DWIDTH 4 0
BBX 2 4 1 7
BITMAP
40
80
80
80
ENDCHAR
STARTCHAR 201A
ENCODING 8218
SWIDTH 266 0
DWIDTH 4 0
BBX 1 4 1 -2
BITMAP
80
80
80
80
ENDCHAR
STARTCHAR 201C
ENCODING 8220
SWIDTH 400 0
DWIDTH 6 0
BBX 5 4 1 7
BITMAP
48
50
90
90
ENDCHAR
STARTCHAR 201D
ENCODING 8221
SWIDTH 400 0
DWIDTH 6 0
BBX 4 4 1 7
BITMAP
50
90
90
A0
ENDCHAR
STARTCHAR 201E
ENCODING 8222
SWIDTH 400 0
DWIDTH 6 0
BBX 4 4 1 -2
BITMAP
90
90
A0
A0
ENDCHAR
STARTCHAR 2020
ENCODING 8224
SWIDTH 466 0
DWIDTH 7 0
BBX 6 13 1 -2
BITMAP
20
20
20
FC
20
20
20
20
20
20
20
20
20
ENDCHAR
STARTCHAR 2021
ENCODING 8225
SWIDTH 466 0
DWIDTH 7 0
BBX 6 13 1 -2
BITMAP
20
20
20
FC
20
20
20
20
20
FC
20
20
20
ENDCHAR
STARTCHAR 2022
ENCODING 8226
SWIDTH 333 0
DWIDTH 5 0
BBX 3 3 1 4
BITMAP
E0
E0
E0
ENDCHAR
STARTCHAR 2026
ENCODING 8230
SWIDTH 733 0
DWIDTH 11 0
BBX 9 2 1 0
BITMAP
C880
C880
ENDCHAR
STARTCHAR 2030
ENCODING 8240
SWIDTH 1200 0
DWIDTH 18 0
BBX 16 11 1 0
BITMAP
E100
9100
9200
9200
95E7
9529
E929
0929
1129
1129
11E7
ENDCHAR
STARTCHAR 2039
ENCODING 8249
SWIDTH 266 0
DWIDTH 4 0
BBX 4 7 0 1
BITMAP
10
20
40
C0
40
20
10
ENDCHAR
STARTCHAR 203A
ENCODING 8250
SWIDTH 266 0
DWIDTH 4 0
BBX 3 7 1 1
BITMAP
80
80
40
20
40
80
80
ENDCHAR
STARTCHAR 2044
ENCODING 8260
SWIDTH 133 0
DWIDTH 2 0
BBX 6 11 -2 0
BITMAP
04
08
08
10
10
10
20
20
40
40
80
ENDCHAR
STARTCHAR 2070
ENCODING 8304
SWIDTH 333 0
DWIDTH 5 0
BBX 4 7 1 4
BITMAP
E0
90
90
90
90
90
E0
ENDCHAR
STARTCHAR 2074
ENCODING 8308
SWIDTH 333 0
DWIDTH 5 0
BBX 4 7 1 4
BITMAP
40
40
50
90
90
F0
10
ENDCHAR
STARTCHAR 2080
ENCODING 8320
SWIDTH 333 0
DWIDTH 5 0
BBX 4 7 1 0
BITMAP
E0
90
90
90
90
90
E0
ENDCHAR
STARTCHAR 2081
ENCODING 8321
SWIDTH 333 0
DWIDTH 5 0
BBX 4 7 1 0
BITMAP
C0
40
40
40
40
40
F0
ENDCHAR
STARTCHAR 2082
ENCODING 8322
SWIDTH 333 0
DWIDTH 5 0
BBX 4 7 1 0
BITMAP
E0
10
10
E0
80
80
F0
ENDCHAR
STARTCHAR 2083
ENCODING 8323
SWIDTH 333 0
DWIDTH 5 0
BBX 4 7 1 0
BITMAP
E0
10
10
E0
10
10
E0
ENDCHAR
STARTCHAR 2084
ENCODING 8324
SWIDTH 333 0
DWIDTH 5 0
BBX 4 7 1 0
BITMAP
40
40
50
90
90
F0
10
ENDCHAR
STARTCHAR 20AC
ENCODING 8364
SWIDTH 600 0
DWIDTH 9 0
BBX 7 11 1 0
BITMAP
7E
40
40
40
FC
40
F8
40
40
40
7E
ENDCHAR
STARTCHAR 20BA
ENCODING 8378
SWIDTH 600 0
DWIDTH 9 0
BBX 8 11 0 0
BITMAP
20
20
2C
30
EC
30
E1
21
21
22
3C
ENDCHAR
STARTCHAR 20BD
ENCODING 8381
SWIDTH 600 0
DWIDTH 9 0
BBX 7 11 1 0
BITMAP
FC
82
82
82
82
FC
80
F8
80
80
80
ENDCHAR
STARTCHAR 2113
ENCODING 8467
SWIDTH 266 0
DWIDTH 4 0
BBX 2 11 1 0
BITMAP
80
80
80
80
80
80
80
80
80
80
40
ENDCHAR
STARTCHAR 2122
ENCODING 8482
SWIDTH 800 0
DWIDTH 12 0
BBX 11 5 0 6
BITMAP
FE20
2660
25A0
25A0
2420
ENDCHAR
STARTCHAR 2126
ENCODING 8486
SWIDTH 666 0
DWIDTH 10 0
BBX 9 11 1 0
BITMAP
7F00
8100
8100
8100
8100
8100
8100
8100
4300
2200
E780
ENDCHAR
STARTCHAR 212E
ENCODING 8494
SWIDTH 866 0
DWIDTH 13 0
BBX 11 11 1 0
BITMAP
1F00
20C0
4040
C060
C060
FFE0
C000
C000
4000
20C0
1F00
ENDCHAR
STARTCHAR 2202
ENCODING 8706
SWIDTH 600 0
DWIDTH 9 0
BBX 6 11 1 0
BITMAP
78
04
04
04
7C
84
84
84
84
84
7C
ENDCHAR
STARTCHAR 2206
ENCODING 8710
SWIDTH 600 0
DWIDTH 9 0
BBX 9 11 0 0
BITMAP
0C00
1400
1400
1200
2200
2200
2100
4100
4100
4080
FF80
ENDCHAR
STARTCHAR 220F
ENCODING 8719
SWIDTH 666 0
DWIDTH 10 0
BBX 8 13 1 -2
BITMAP
FF
81
81
81
81
81
81
81
81
81
81
81
81
ENDCHAR
STARTCHAR 2211
ENCODING 8721
SWIDTH 600 0
DWIDTH 9 0
BBX 7 13 1 -2
BITMAP
FE
80
40
60
20
10
10
10
20
60
40
80
FE
ENDCHAR
STARTCHAR 2212
ENCODING 8722
SWIDTH 600 0
DWIDTH 9 0
BBX 7 1 1 5
BITMAP
FE
ENDCHAR
STARTCHAR 2215
ENCODING 8725
SWIDTH 133 0
DWIDTH 2 0
BBX 6 11 -2 0
BITMAP
04
08
08
10
10
10
20
20
40
40
80
ENDCHAR
STARTCHAR 2219
ENCODING 8729
SWIDTH 266 0
DWIDTH 4 0
BBX 2 2 1 4
BITMAP
C0
C0
ENDCHAR
STARTCHAR 221A
ENCODING 8730
SWIDTH 600 0
DWIDTH 9 0
BBX 9 12 0 0
BITMAP
0080
0100
0100
0100
0200
0200
E400
2400
2400
1800
1800
1800
ENDCHAR
STARTCHAR 221E
ENCODING 8734
SWIDTH 600 0
DWIDTH 9 0
BBX 8 5 1 3
BITMAP
FE
91
91
91
FE
ENDCHAR
STARTCHAR 222B
ENCODING 8747
SWIDTH 400 0
DWIDTH 6 0
BBX 6 14 0 -3
BITMAP
1C
10
10
10
10
10
10
10
10
10
10
10
20
E0
ENDCHAR
STARTCHAR 2248
ENCODING 8776
SWIDTH 600 0
DWIDTH 9 0
BBX 7 7 1 2
BITMAP
62
94
8C
00
62
94
8C
ENDCHAR
STARTCHAR 2260
ENCODING 8800
SWIDTH 600 0
DWIDTH 9 0
BBX 7 8 1 1
BITMAP
04
08
FE
10
20
FE
40
40
ENDCHAR
STARTCHAR 2264
ENCODING 8804
SWIDTH 600 0
DWIDTH 9 0
BBX 7 9 1 0
BITMAP
06
18
60
80
60
18
06
00
FE
ENDCHAR
STARTCHAR 2265
ENCODING 8805
SWIDTH 600 0
DWIDTH 9 0
BBX 7 9 1 0
BITMAP
80
70
0C
02
0C
30
C0
00
FE
ENDCHAR
STARTCHAR 25CA
ENCODING 9674
SWIDTH 600 0
DWIDTH 9 0
BBX 7 11 1 0
BITMAP
10
28
48
44
84
82
84
44
48
28
10
ENDCHAR
STARTCHAR F000
ENCODING 61440
SWIDTH 733 0
DWIDTH 11 0
BBX 9 8 1 1
BITMAP
0800
1800
1C00
3C00
3E00
7E00
7F00
FF80
ENDCHAR
STARTCHAR FB01
ENCODING 64257
SWIDTH 600 0
DWIDTH 9 0
BBX 7 11 1 0
BITMAP
70
82
80
F2
82
82
82
82
82
82
82
ENDCHAR
STARTCHAR FB02
ENCODING 64258
SWIDTH 600 0
DWIDTH 9 0
BBX 8 11 1 0
BITMAP
72
82
82
F2
82
82
82
82
82
82
83
ENDCHAR
ENDFONT
